<svg width="26" height="34" viewBox="0 0 26 34" fill="none" xmlns="http://www.w3.org/2000/svg">
<path fill-rule="evenodd" clip-rule="evenodd" d="M16.0235 2.33112C15.1696 1.39286 13.7146 1.32439 12.7763 2.17826L2.33117 11.6843C1.39291 12.5382 1.32444 13.9933 2.17837 14.9315L10.2843 23.8383C11.1382 24.7765 12.5932 24.8451 13.5315 23.9911L23.9766 14.4851C24.9149 13.6312 24.9834 12.1762 24.1295 11.2379L16.0235 2.33112Z" stroke="#4B4B4B" stroke-width="2" stroke-linecap="round" stroke-linejoin="round"/>
<path d="M2.26582 16.5806C1.36302 17.4022 1.29722 18.8001 2.11882 19.7028L9.91282 28.2668C10.7344 29.1696 12.1323 29.2354 13.035 28.4138L23.0782 19.2736C23.9809 18.452 24.0467 17.0542 23.2251 16.1514" stroke="#4B4B4B" stroke-width="2" stroke-linecap="round" stroke-linejoin="round"/>
<path d="M2.24041 20.7473C1.35167 21.5561 1.28687 22.9322 2.09574 23.821L9.76861 32.2519C10.5775 33.1406 11.9536 33.2054 12.8423 32.3966L22.7294 23.3984C23.6181 22.5896 23.6829 21.2134 22.8741 20.3247" stroke="#4B4B4B" stroke-width="2" stroke-linecap="round" stroke-linejoin="round"/>
<path d="M6.06152 12.9632L14.0615 5.62988" stroke="#4B4B4B" stroke-width="2" stroke-linecap="round" stroke-linejoin="round"/>
</svg>
