<svg xmlns="http://www.w3.org/2000/svg" width="12" height="17" fill="none" viewBox="0 0 12 17"><path fill="#4b4b4b" fill-rule="evenodd" d="M11.906 14.98a.8.8 0 0 1-.332 1.085l-1.074.572a3.16 3.16 0 0 1-1.97.332l-.76-.119a3.18 3.18 0 0 1-2.318-1.65L.37 5.648A3.17 3.17 0 0 1 .3 2.817l.33-.704A3.16 3.16 0 0 1 2.006.666L3.081.093a.8.8 0 0 1 1.085.331l1.15 2.164a1.185 1.185 0 0 1-.49 1.602l-.537.286a1.62 1.62 0 0 0-.67 2.191l2.822 5.305a1.587 1.587 0 0 0 2.147.656c.193-.104.39-.208.576-.307a1.17 1.17 0 0 1 1.585.485Z" clip-rule="evenodd"/></svg>