<svg width="33" height="22" viewBox="0 0 33 22" fill="none" xmlns="http://www.w3.org/2000/svg">
<path fill-rule="evenodd" clip-rule="evenodd" d="M10.8126 9.63079V13.1266H16.4666C16.2387 14.6269 14.7576 17.5255 10.8126 17.5255C7.40883 17.5255 4.63169 14.6415 4.63169 11.0874C4.63169 7.5333 7.40883 4.64925 10.8126 4.64925C12.7495 4.64925 14.0455 5.49407 14.7861 6.22237L17.492 3.5568C15.7545 1.89628 13.5043 0.891235 10.8126 0.891235C5.30105 0.891235 0.843384 5.45037 0.843384 11.0874C0.843384 16.7244 5.30105 21.2835 10.8126 21.2835C16.5663 21.2835 20.3831 17.1468 20.3831 11.3204C20.3831 10.6504 20.3119 10.1406 20.2264 9.63079H10.8126Z" fill="white"/>
<path fill-rule="evenodd" clip-rule="evenodd" d="M32.1753 9.63084H29.327V6.71765H26.4786V9.63084H23.6302V12.544H26.4786V15.4572H29.327V12.544H32.1753" fill="white"/>
</svg>
