<svg width="23" height="23" viewBox="0 0 23 23" fill="none" xmlns="http://www.w3.org/2000/svg">
<mask id="mask0_0_2284" style="mask-type:luminance" maskUnits="userSpaceOnUse" x="0" y="0" width="23" height="23">
<path fill-rule="evenodd" clip-rule="evenodd" d="M0.351074 22.2461H22.2905V0.891235H0.351074V22.2461Z" fill="white"/>
</mask>
<g mask="url(#mask0_0_2284)">
<path fill-rule="evenodd" clip-rule="evenodd" d="M19.047 19.1184H15.7938V14.154C15.7938 12.9704 15.7725 11.4475 14.1026 11.4475C12.4096 11.4475 12.1512 12.7375 12.1512 14.0696V19.1184H8.901V8.91035H12.0201V10.3061H12.0646C12.4986 9.50334 13.5608 8.65723 15.1442 8.65723C18.4382 8.65723 19.047 10.7707 19.047 13.52V19.1184ZM5.23157 7.5157C4.18637 7.5157 3.34412 6.69157 3.34412 5.67552C3.34412 4.66007 4.18637 3.83594 5.23157 3.83594C6.2725 3.83594 7.1178 4.66007 7.1178 5.67552C7.1178 6.69157 6.2725 7.5157 5.23157 7.5157ZM3.60242 19.1183H6.85929V8.91028H3.60242V19.1183ZM20.6675 0.891235H1.96976C1.07692 0.891235 0.351074 1.58167 0.351074 2.43373V20.7381C0.351074 21.5901 1.07692 22.2818 1.96976 22.2818H20.6675C21.5628 22.2818 22.2905 21.5901 22.2905 20.7381V2.43373C22.2905 1.58167 21.5628 0.891235 20.6675 0.891235Z" fill="#7D7D7D"/>
</g>
</svg>
