<svg width="22" height="22" viewBox="0 0 22 22" fill="none" xmlns="http://www.w3.org/2000/svg">
<path fill-rule="evenodd" clip-rule="evenodd" d="M10.9265 0.280273C5.03807 0.280273 0.26416 5.0684 0.26416 10.9752C0.26416 15.5063 3.07438 19.3764 7.04098 20.9344C6.9475 20.0885 6.86318 18.7902 7.07759 17.8669C7.27174 17.0322 8.3281 12.5503 8.3281 12.5503C8.3281 12.5503 8.0091 11.9096 8.0091 10.9628C8.0091 9.47556 8.86805 8.36541 9.93814 8.36541C10.8481 8.36541 11.2874 9.04999 11.2874 9.87162C11.2874 10.7896 10.7049 12.1614 10.4042 13.4329C10.1532 14.4971 10.9363 15.3653 11.9829 15.3653C13.8779 15.3653 15.335 13.3608 15.335 10.4677C15.335 7.90705 13.5008 6.11626 10.8814 6.11626C7.84764 6.11626 6.06698 8.39885 6.06698 10.7582C6.06698 11.6768 6.41998 12.6631 6.86056 13.1988C6.9475 13.3044 6.96058 13.3975 6.93443 13.5057C6.85337 13.8434 6.67361 14.5699 6.63831 14.7181C6.5919 14.9142 6.48338 14.9555 6.28139 14.8617C4.94982 14.2394 4.11767 12.2867 4.11767 10.7182C4.11767 7.34444 6.56117 4.24612 11.1625 4.24612C14.8604 4.24612 17.7354 6.89002 17.7354 10.4231C17.7354 14.1089 15.418 17.0755 12.2025 17.0755C11.122 17.0755 10.1068 16.5122 9.75903 15.8473C9.75903 15.8473 9.22431 17.8892 9.09488 18.3895C8.85367 19.3187 8.2039 20.4833 7.7692 21.1934C8.76673 21.5029 9.82702 21.6701 10.9265 21.6701C16.8143 21.6701 21.5882 16.882 21.5882 10.9752C21.5882 5.0684 16.8143 0.280273 10.9265 0.280273Z" fill="#7D7D7D"/>
</svg>
